<svg width="300" height="300" viewBox="0 0 300 300" fill="none" xmlns="http://www.w3.org/2000/svg">
<circle cx="150" cy="150" r="150" fill="url(#paint0_linear_188_362)"/>
<path d="M228.327 100.477C228.327 97.3734 227.816 94.3247 226.701 91.4682C225.86 89.3367 224.685 87.3265 223.163 85.5356C220.878 82.844 217.829 80.6907 214.192 79.2679C210.556 77.8395 206.343 77.1146 201.58 77.1146V86.4641C204.969 86.4641 207.743 86.9257 209.968 87.678C213.302 88.8206 215.384 90.5179 216.802 92.6108C218.208 94.7036 218.966 97.346 218.977 100.477C218.983 104.553 217.631 109.392 214.896 114.127C213.088 117.275 210.562 121.192 207.7 125.411L205.486 123.916V123.911C199.916 132.123 192.983 141.588 187.182 149.41C184.282 153.332 181.667 156.842 179.618 159.611C178.597 160.995 177.712 162.198 177.003 163.198C176.641 163.692 176.328 164.143 176.047 164.549C175.767 164.956 175.531 165.307 175.284 165.708C174.976 166.214 174.421 166.928 173.68 167.648C172.559 168.735 171.026 169.85 169.203 170.647C167.374 171.449 165.275 171.965 162.836 171.965C159.595 171.965 156.92 171.048 154.75 169.762C153.668 169.114 152.735 168.378 151.993 167.647C151.246 166.928 150.696 166.214 150.389 165.708C150.142 165.307 149.905 164.955 149.625 164.549C149.098 163.785 148.444 162.873 147.642 161.769C144.84 157.935 140.292 151.876 135.266 145.054C130.245 138.226 124.752 130.64 120.187 123.91L117.973 125.41C115.106 121.186 112.59 117.28 110.772 114.127C108.047 109.392 106.69 104.553 106.696 100.477C106.696 98.3891 107.042 96.516 107.679 94.8847C108.157 93.6599 108.805 92.5721 109.635 91.5944C110.882 90.1386 112.546 88.9029 114.903 87.9744C117.243 87.0515 120.275 86.4637 124.093 86.4637V77.1146C119.852 77.1146 116.056 77.6859 112.711 78.8229C107.696 80.4984 103.686 83.525 101.099 87.3978C98.5058 91.265 97.3467 95.8297 97.3467 100.477C97.3523 106.558 99.2637 112.859 102.67 118.797C104.669 122.268 107.295 126.328 110.234 130.667L108.02 132.167C113.827 140.709 120.836 150.273 126.68 158.166C129.603 162.105 132.217 165.615 134.228 168.34C135.228 169.697 136.085 170.856 136.727 171.757C137.046 172.202 137.315 172.575 137.513 172.877C137.711 173.169 137.853 173.383 137.875 173.416C138.902 175.086 140.193 176.668 141.742 178.178C144.066 180.447 147.005 182.535 150.559 184.1C152.086 184.776 153.739 185.336 155.486 185.764V213.747C155.486 216.306 154.926 218.701 153.893 220.937C152.355 224.283 149.691 227.254 146.23 229.385C142.775 231.522 138.551 232.808 133.931 232.808C127.773 232.808 122.308 230.522 118.452 226.996C116.524 225.227 115.002 223.167 113.969 220.937C112.936 218.701 112.376 216.306 112.376 213.747V213.593C116.677 212.307 120.534 209.983 123.615 206.896C128.444 202.073 131.443 195.361 131.438 188.006C131.443 180.634 128.444 173.927 123.615 169.109C118.792 164.281 112.091 161.276 104.725 161.281C97.3526 161.276 90.6512 164.28 85.8225 169.109C80.9994 173.927 78.0002 180.634 78.0002 188.006C78.0002 195.361 80.9994 202.074 85.8225 206.896C89.0526 210.121 93.1339 212.505 97.6821 213.747C97.6764 218.476 98.7367 223.036 100.637 227.112C103.472 233.247 108.146 238.334 113.914 241.894C119.682 245.453 126.582 247.502 133.932 247.502C143.737 247.497 152.724 243.871 159.326 237.845C162.628 234.824 165.341 231.198 167.231 227.112C169.126 223.036 170.186 218.476 170.181 213.747V185.759C173.274 185.001 176.064 183.814 178.465 182.375C180.563 181.117 182.382 179.689 183.925 178.178C185.485 176.667 186.765 175.085 187.792 173.415C187.82 173.382 187.957 173.168 188.16 172.877C188.539 172.322 189.149 171.476 189.901 170.433C192.582 166.758 197.169 160.655 202.239 153.767C207.32 146.867 212.885 139.171 217.647 132.167L215.439 130.667C218.373 126.333 220.999 122.257 223.004 118.797C226.409 112.859 228.321 106.558 228.327 100.477ZM104.725 206.704C99.5394 206.698 94.8921 204.617 91.4974 201.227C88.1027 197.827 86.0151 193.174 86.0151 188.005C86.0151 182.82 88.1027 178.172 91.4974 174.767C94.8921 171.389 99.5394 169.301 104.725 169.295C109.9 169.301 114.552 171.388 117.942 174.767C121.342 178.173 123.424 182.82 123.429 188.005C123.423 193.174 121.342 197.827 117.942 201.227C114.552 204.617 109.9 206.698 104.725 206.704Z" fill="#D3E9F3"/>
<path d="M145.012 95.374C146.385 94.4129 147.209 92.8361 147.209 91.1553V72.6378C147.209 70.9622 146.385 69.3858 145.012 68.4299C143.639 67.4631 141.881 67.2378 140.304 67.8147L129.082 71.9347V91.8693L140.304 95.9784C141.881 96.5606 143.638 96.3296 145.012 95.374Z" fill="#D3E9F3"/>
<path d="M180.75 95.3741C182.124 96.33 183.887 96.5606 185.463 95.9837L196.686 91.8694V71.9347L185.463 67.8148C183.887 67.2326 182.124 67.4632 180.75 68.43C179.377 69.3912 178.559 70.9623 178.559 72.6379V91.1554C178.558 92.8362 179.377 94.4126 180.75 95.3741Z" fill="#D3E9F3"/>
<path d="M104.725 177.874C99.1331 177.874 94.6011 182.406 94.6011 187.998C94.6011 193.579 99.1331 198.106 104.725 198.106C110.312 198.106 114.838 193.579 114.838 187.998C114.838 182.406 110.311 177.874 104.725 177.874ZM109.043 192.31C107.927 193.42 106.411 194.096 104.725 194.101C103.028 194.096 101.517 193.42 100.396 192.31C99.292 191.201 98.6163 189.685 98.611 187.998C98.6166 186.301 99.2923 184.779 100.396 183.675C101.517 182.565 103.027 181.884 104.725 181.879C106.411 181.884 107.927 182.565 109.043 183.675C110.152 184.779 110.828 186.301 110.828 187.998C110.828 189.685 110.152 191.2 109.043 192.31Z" fill="#D3E9F3"/>
<defs>
<linearGradient id="paint0_linear_188_362" x1="150" y1="0" x2="150" y2="300" gradientUnits="userSpaceOnUse">
<stop stop-color="#17B2E2"/>
<stop offset="0.859375" stop-color="#2596BE"/>
</linearGradient>
</defs>
</svg>
