<?xml version="1.0" encoding="iso-8859-1"?>
<!-- Uploaded to: SVG Repo, www.svgrepo.com, Generator: SVG Repo Mixer Tools -->
<!DOCTYPE svg PUBLIC "-//W3C//DTD SVG 1.1//EN" "http://www.w3.org/Graphics/SVG/1.1/DTD/svg11.dtd">
<svg fill="#000000" version="1.1" id="Capa_1" xmlns="http://www.w3.org/2000/svg" xmlns:xlink="http://www.w3.org/1999/xlink" 
	 width="800px" height="800px" viewBox="0 0 97.396 97.396"
	 xml:space="preserve">
<g>
	<g>
		<path d="M79.247,16.472h-6.5v-9.18c0-2.419-1.969-4.388-4.387-4.388H54.344V1.95c0-1.077-0.873-1.95-1.95-1.95h-18.28
			c-1.077,0-1.95,0.873-1.95,1.95v0.954H18.148c-2.419,0-4.387,1.968-4.387,4.388V79.44c0,2.419,1.968,4.387,4.387,4.387h6.501
			v9.181c0,2.42,1.968,4.388,4.387,4.388h50.211c2.42,0,4.388-1.968,4.388-4.388V20.86C83.635,18.441,81.667,16.472,79.247,16.472z
			 M24.649,20.86v58.093h-6.013V7.78h13.527v0.583c0,1.077,0.873,1.95,1.95,1.95h18.28c1.077,0,1.95-0.873,1.95-1.95V7.78H67.87
			v8.693h-2.641v-0.955c0-1.077-0.873-1.95-1.949-1.95H45c-1.077,0-1.95,0.873-1.95,1.95v0.954H29.036
			C26.617,16.472,24.649,18.441,24.649,20.86z M78.76,92.521H29.523V21.347h13.528v0.583c0,1.077,0.873,1.95,1.95,1.95H63.28
			c1.078,0,1.951-0.874,1.951-1.95v-0.583h13.526v71.173H78.76z"/>
		<rect x="37.242" y="59.707" width="33.798" height="6.825"/>
		<rect x="37.242" y="73.682" width="33.798" height="6.826"/>
		<polygon points="51.136,52.396 57.147,52.396 57.147,44.757 64.786,44.757 64.786,38.745 57.147,38.745 57.147,31.108 
			51.136,31.108 51.136,38.745 43.499,38.745 43.499,44.757 51.136,44.757 		"/>
	</g>
</g>
</svg>