<svg width="300" height="300" viewBox="0 0 300 300" fill="none" xmlns="http://www.w3.org/2000/svg">
<circle cx="150" cy="150" r="150" fill="url(#paint0_linear_188_345)"/>
<path d="M121.562 155.734H183.438M152.5 124.251V187.217M235 155.734C235 202.55 178.694 236.473 159.114 246.855C156.997 247.978 155.938 248.539 154.47 248.83C153.325 249.057 151.675 249.057 150.53 248.83C149.062 248.539 148.003 247.978 145.886 246.855C126.306 236.473 70 202.55 70 155.734V116.041C70 107.651 70 103.456 71.3485 99.8494C72.5397 96.6637 74.4754 93.8212 76.9884 91.5676C79.833 89.0166 83.6929 87.5436 91.4129 84.5976L146.706 63.4973C148.85 62.6791 149.922 62.2701 151.025 62.1078C152.003 61.9641 152.997 61.9641 153.975 62.1078C155.078 62.2701 156.15 62.6791 158.294 63.4973L213.587 84.5976C221.307 87.5436 225.167 89.0166 228.011 91.5676C230.524 93.8212 232.46 96.6637 233.651 99.8494C235 103.456 235 107.651 235 116.041V155.734Z" stroke="#D3E9F3" stroke-width="18" stroke-linecap="round" stroke-linejoin="round"/>
<defs>
<linearGradient id="paint0_linear_188_345" x1="150" y1="0" x2="150" y2="300" gradientUnits="userSpaceOnUse">
<stop stop-color="#17B2E2"/>
<stop offset="1" stop-color="#2596BE"/>
</linearGradient>
</defs>
</svg>
