<svg width="300" height="300" viewBox="0 0 300 300" fill="none" xmlns="http://www.w3.org/2000/svg">
<path d="M300 150C300 232.843 232.843 300 150 300C67.1573 300 0 232.843 0 150C0 67.1573 67.1573 0 150 0C232.843 0 300 67.1573 300 150Z" fill="url(#paint0_linear_188_352)"/>
<path d="M230.586 204.423C223.04 192.067 210.681 178.072 190.56 170.116C179.053 177.532 165.073 181.898 150.002 181.898C134.923 181.898 120.943 177.532 109.435 170.116C89.3147 178.072 76.9553 192.068 69.4137 204.423C59.4046 220.811 67.252 244 84.5623 244C101.873 244 150.002 244 150.002 244C150.002 244 198.127 244 215.438 244C232.748 244 240.596 220.811 230.586 204.423Z" fill="#D3E9F3"/>
<path d="M150.002 166.392C179.558 166.392 203.51 144.321 203.51 117.1V105.292C203.51 78.0709 179.558 56 150.002 56C120.442 56 96.4857 78.0709 96.4857 105.292V117.1C96.4857 144.321 120.442 166.392 150.002 166.392Z" fill="#D3E9F3"/>
<defs>
<linearGradient id="paint0_linear_188_352" x1="150" y1="0" x2="150" y2="300" gradientUnits="userSpaceOnUse">
<stop stop-color="#17B2E2"/>
<stop offset="0.90625" stop-color="#2596BE"/>
</linearGradient>
</defs>
</svg>
